<svg id="Calque_1" xmlns="http://www.w3.org/2000/svg" viewBox="0 0 557.09 69.46"><style>.st0{fill:#fff}</style><path class="st0" d="M67.96 51.52c-.32-5.23-.69-10.56-1.07-15.82-.38-5.19-.82-10.37-1.3-15.39-.48-5-.99-9.78-1.52-14.21l-.12-1.01H52.3l-.33.57c-1.29 2.24-2.76 5.01-4.34 8.24a475.271 475.271 0 0 0-9.68 20.99c-1.18 2.73-2.29 5.3-3.34 7.72-1.06-2.42-2.18-5-3.39-7.73-1.6-3.64-3.24-7.28-4.88-10.82-1.65-3.55-3.27-6.97-4.84-10.16-1.58-3.22-3.04-5.99-4.34-8.24l-.33-.57H4.93l-.13 1c-.54 4.19-1.05 8.84-1.52 13.82-.48 4.95-.91 10.15-1.3 15.43-.39 5.28-.75 10.68-1.07 16.04C.58 56.72.3 61.98.06 67.02L0 68.23h13.19l.04-1.1c.24-7.14.53-14.49.85-21.85.26-5.98.63-11.87 1.11-17.57.15.33.31.67.47 1.01l2.81 6.1c.99 2.16 2 4.41 3.02 6.74 1.02 2.34 2.02 4.61 2.99 6.81.96 2.19 1.85 4.25 2.67 6.17.82 1.94 1.53 3.58 2.11 4.93l.3.69h9.75l.3-.69c.59-1.35 1.29-2.97 2.11-4.88.82-1.9 1.71-3.95 2.67-6.14.97-2.2 1.96-4.46 2.99-6.81 1.02-2.33 2.03-4.6 3.02-6.79.99-2.19 1.93-4.22 2.8-6.09.16-.35.32-.69.48-1.01.47 5.7.84 11.57 1.1 17.52.33 7.49.61 14.84.85 21.85l.04 1.11h13.2l-.06-1.2c-.24-4.99-.53-10.21-.85-15.51zM105.43 24.26c-1.55-1.71-3.64-3.05-6.21-3.99-2.51-.92-5.63-1.39-9.26-1.39-2.98 0-5.82.24-8.46.72-2.66.48-4.64.96-6.05 1.45l-.9.31 1.67 10.93 1.31-.48c1.22-.44 2.84-.84 4.81-1.18 1.98-.34 4.18-.51 6.57-.51 1.66 0 3.05.21 4.1.62 1.02.4 1.84.96 2.45 1.66a6.26 6.26 0 0 1 1.3 2.49c.27 1.01.4 2.1.4 3.22v.33c-.99-.2-1.94-.35-2.85-.46-1.34-.15-2.62-.23-3.82-.23-2.58 0-5.1.26-7.48.77-2.44.53-4.62 1.41-6.48 2.62a13.729 13.729 0 0 0-4.54 4.83c-1.12 1.98-1.68 4.41-1.68 7.23 0 2.92.5 5.42 1.48 7.44.99 2.04 2.38 3.72 4.13 4.99 1.72 1.26 3.83 2.18 6.25 2.74 2.35.54 4.98.82 7.81.82 4.19 0 8.01-.25 11.36-.76 3.31-.5 5.83-.93 7.49-1.29l.9-.19V38.2c0-2.78-.32-5.38-.96-7.72-.67-2.42-1.79-4.51-3.34-6.22zm-8.27 33.87c-1.57.23-3.69.35-6.32.35-2.47 0-4.42-.43-5.81-1.28-1.23-.75-1.82-2.14-1.82-4.25 0-1.05.23-1.91.68-2.55.48-.69 1.09-1.21 1.88-1.6a9.96 9.96 0 0 1 2.92-.86c1.13-.17 2.27-.25 3.39-.25 1.28 0 2.46.08 3.51.25.61.1 1.14.19 1.58.29v9.9zM121.66 0c-2.1 0-3.92.69-5.42 2.05-1.53 1.39-2.31 3.3-2.31 5.68 0 2.32.78 4.2 2.31 5.59 1.5 1.36 3.32 2.05 5.42 2.05 2.04 0 3.84-.69 5.34-2.05 1.53-1.39 2.3-3.27 2.3-5.59 0-2.37-.78-4.28-2.31-5.68C125.5.69 123.7 0 121.66 0zM115.25 20.02h12.91v48.21h-12.91zM162.99 44.89c-1.22-1.22-2.77-2.32-4.63-3.28-1.79-.92-3.99-1.87-6.56-2.83-1.48-.51-2.74-1.01-3.75-1.49-.98-.46-1.76-.92-2.34-1.36-.49-.38-.83-.77-1.02-1.19-.19-.43-.29-.96-.29-1.55 0-1.11.44-1.84 1.42-2.37 1.17-.64 2.76-.96 4.72-.96 2.3 0 4.34.21 6.05.63 1.74.42 3.18.89 4.28 1.38l1.28.57 2.46-10.94-.93-.35c-1.3-.49-3.16-.99-5.71-1.5a40.3 40.3 0 0 0-7.95-.77c-5.56 0-10.05 1.31-13.35 3.89-3.38 2.65-5.09 6.3-5.09 10.86 0 2.32.37 4.32 1.11 5.96a12.56 12.56 0 0 0 3.04 4.2c1.24 1.12 2.74 2.11 4.43 2.94 1.63.8 3.46 1.57 5.42 2.28 3.05 1.13 5.25 2.17 6.53 3.1 1.09.79 1.59 1.69 1.59 2.85 0 1.58-.75 2.16-1.32 2.45-1.12.58-3.01.88-5.61.88-2.7 0-5.12-.28-7.21-.84-2.14-.57-3.99-1.17-5.53-1.8l-1.27-.52-2.32 11.14.88.36c1.05.43 2.79.98 5.32 1.67 2.54.7 5.92 1.05 10.05 1.05 6.24 0 11.14-1.21 14.57-3.58 3.56-2.47 5.36-6.14 5.36-10.91 0-2.17-.29-4.07-.86-5.66-.58-1.59-1.52-3.05-2.77-4.31zM206.35 25.83c-2.04-2.22-4.52-3.95-7.38-5.15-2.85-1.2-6-1.8-9.36-1.8-3.36 0-6.5.61-9.31 1.8-2.83 1.2-5.31 2.93-7.37 5.15-2.06 2.21-3.67 4.9-4.8 7.98-1.12 3.07-1.69 6.52-1.69 10.27s.57 7.22 1.69 10.31c1.13 3.11 2.73 5.81 4.75 8.02 2.03 2.22 4.5 3.96 7.32 5.19 2.83 1.23 5.99 1.85 9.41 1.85s6.6-.62 9.45-1.85c2.86-1.23 5.34-2.98 7.37-5.19 2.03-2.21 3.61-4.91 4.71-8.03 1.09-3.09 1.65-6.56 1.65-10.3 0-3.74-.57-7.2-1.69-10.27-1.13-3.09-2.73-5.77-4.75-7.98zm-9.45 28.55c-1.75 2.4-4.13 3.57-7.28 3.57-3.15 0-5.54-1.17-7.28-3.57-1.81-2.48-2.72-5.94-2.72-10.3 0-4.3.91-7.72 2.72-10.16 1.75-2.38 4.13-3.53 7.29-3.53 3.15 0 5.54 1.16 7.29 3.53 1.8 2.45 2.72 5.87 2.72 10.16-.02 4.35-.93 7.82-2.74 10.3zM347.64 21.49c-.91-.21-1.87-.4-2.85-.55-1.01-.16-2.01-.28-2.97-.37-.96-.09-1.82-.14-2.53-.14-3.96 0-7.6.36-10.84 1.07-2.68.59-5.02 1.21-6.96 1.86v44.83h7.9v-39.9l1.29-.43c.68-.23 1.73-.46 3.31-.74 1.56-.28 3.05-.42 4.43-.42 2.36 0 4.49.19 6.32.57.81.17 1.53.33 2.18.49l1.26-6.13c-.17-.05-.35-.09-.54-.14zM380.79 25.12c-1.36-1.5-3.24-2.7-5.57-3.55-2.42-.89-5.48-1.33-9.1-1.33-3.09 0-6.03.25-8.73.74-1.88.34-3.45.68-4.69 1.02l.87 5.68c1.08-.28 2.3-.54 3.65-.77 2.34-.4 4.95-.61 7.75-.61 2.22 0 4.12.3 5.65.9 1.6.63 2.92 1.53 3.93 2.7a10 10 0 0 1 2.09 3.99c.36 1.37.54 2.83.54 4.34v4.32l-2.34-.55a34.66 34.66 0 0 0-8.15-1.01c-2.61 0-5.16.26-7.57.78-2.3.5-4.35 1.32-6.07 2.44-1.67 1.08-3 2.5-3.97 4.22-.96 1.7-1.45 3.85-1.45 6.41 0 2.72.44 5.01 1.31 6.8.87 1.79 2.03 3.21 3.56 4.31 1.55 1.13 3.48 1.97 5.73 2.49 2.36.54 5.01.82 7.88.82 4.45 0 8.49-.27 12.02-.8 2.68-.4 4.88-.76 6.55-1.08V38.33c0-2.78-.32-5.35-.95-7.66-.58-2.17-1.58-4.04-2.94-5.55zm-3.62 37.71l-1.5.31c-2.01.42-4.82.62-8.58.62-3.3 0-6-.63-8.03-1.87-2.33-1.42-3.51-3.89-3.51-7.35 0-1.8.44-3.34 1.3-4.59.83-1.2 1.93-2.14 3.29-2.8 1.24-.6 2.62-1.01 4.12-1.23 3-.44 6.07-.39 8.53 0 1.31.21 2.31.42 3.05.64l1.34.4v15.87zM422 21.5c-.63 2.43-1.36 5.04-2.18 7.77-.97 3.23-2 6.53-3.07 9.8-1.05 3.2-2.15 6.4-3.26 9.5-1.09 3.04-2.14 5.83-3.12 8.31l-1.75 4.43-1.76-4.43c-.96-2.42-2.02-5.2-3.16-8.29-1.12-3.03-2.24-6.24-3.32-9.52-1.07-3.24-2.08-6.55-3.02-9.81-.79-2.73-1.5-5.33-2.12-7.75h-8.48c2.58 8.86 5.43 17.28 8.51 25.06 3.17 8.04 6.32 15.31 9.36 21.63h7.62c3.03-6.29 6.17-13.56 9.36-21.63 3.08-7.79 5.93-16.21 8.51-25.06H422zM462.22 25.12c-1.36-1.5-3.24-2.7-5.57-3.55-2.42-.89-5.48-1.33-9.1-1.33-3.09 0-6.02.25-8.73.74-1.88.34-3.45.68-4.69 1.02l.87 5.68c1.08-.28 2.3-.54 3.64-.77 2.34-.4 4.95-.61 7.75-.61 2.22 0 4.12.3 5.66.9 1.6.63 2.92 1.53 3.93 2.7a10 10 0 0 1 2.09 3.99c.36 1.37.54 2.83.54 4.34v4.32l-2.33-.55a34.66 34.66 0 0 0-8.15-1.01c-2.61 0-5.16.26-7.57.78-2.3.5-4.35 1.32-6.07 2.44-1.67 1.08-3 2.5-3.97 4.22-.96 1.7-1.45 3.85-1.45 6.41 0 2.72.44 5.01 1.31 6.8.87 1.79 2.03 3.21 3.56 4.31 1.55 1.13 3.48 1.97 5.73 2.49 2.36.54 5.01.82 7.87.82 4.45 0 8.5-.27 12.02-.8 2.68-.4 4.88-.76 6.55-1.08V38.33c0-2.78-.32-5.35-.95-7.66-.58-2.17-1.57-4.04-2.94-5.55zm-3.61 37.71l-1.5.31c-2.01.42-4.82.62-8.59.62-3.3 0-6-.63-8.03-1.87-2.33-1.42-3.51-3.89-3.51-7.35 0-1.8.44-3.34 1.3-4.59.83-1.2 1.93-2.14 3.29-2.8 1.24-.6 2.62-1.01 4.12-1.23 3-.44 6.07-.39 8.53 0 1.31.21 2.31.42 3.05.64l1.35.4v15.87zM502.44 61.9l-1.43.36c-.89.22-2.14.4-3.83.53-1.6.13-3.16.2-4.64.2-4.57 0-7.87-1.45-9.81-4.3-1.81-2.66-2.69-6.79-2.69-12.64V21.5h-7.9v26.39c0 3.24.34 6.25 1.01 8.95.64 2.58 1.7 4.82 3.17 6.66 1.43 1.8 3.39 3.23 5.82 4.26 2.49 1.05 5.66 1.59 9.44 1.59 4.18 0 8.07-.3 11.55-.89 2.81-.48 5.23-.95 7.21-1.41V21.5h-7.9v40.4zM550.73 58.36c-3.21-4.49-6.62-9-10.12-13.4l-.88-1.1L555.4 21.5h-7.64l-11.71 16.88-11.69-16.88h-8.24l15.89 22.88-.9 1.1c-1.63 1.98-3.3 4.11-4.96 6.32-1.66 2.2-3.3 4.44-4.88 6.67-1.55 2.18-3.03 4.37-4.42 6.51-.71 1.09-1.36 2.16-1.96 3.21h7.68c1.34-2.25 2.98-4.8 4.9-7.61 2.2-3.23 4.47-6.21 6.77-8.87l1.47-1.7 1.42 1.74c1.11 1.35 2.25 2.8 3.39 4.3 1.16 1.52 2.29 3.08 3.36 4.64 1.06 1.55 2.06 3.03 3 4.46.7 1.07 1.31 2.09 1.83 3.05h8.38c-1.78-3.12-3.91-6.41-6.36-9.84z"/><path class="st0" d="M328.54 5.09h-49.59v6.75h20.55v54.09c-.67-1.08-1.41-2.16-2.25-3.25-1.43-1.84-2.91-3.63-4.45-5.36 1.21-2.06 2.2-4.22 2.94-6.48.75-2.27 1.24-4.33 1.47-6.2l-7.08-.91c-.23 1.45-.56 2.93-.98 4.45-.42 1.52-.96 2.89-1.61 4.1l-9.6-9.67c1.26-.7 2.44-1.51 3.54-2.42 1.1-.91 2.07-1.92 2.91-3.01.84-1.1 1.51-2.3 2-3.61s.74-2.71.74-4.21c0-1.49-.27-2.91-.81-4.24a9.838 9.838 0 0 0-2.35-3.47c-1.03-.98-2.32-1.75-3.89-2.31-1.57-.56-3.35-.84-5.36-.84-3.92 0-7.09 1.1-9.5 3.29-2.41 2.2-3.61 5.26-3.61 9.18 0 1.87.43 3.64 1.3 5.33.86 1.68 2 3.27 3.4 4.77-1.31.7-2.56 1.5-3.75 2.38s-2.24 1.92-3.15 3.08c-.91 1.17-1.64 2.48-2.17 3.92-.14.38-.26.77-.37 1.18V41.27c0-3.18-.32-6.14-.95-8.82-.65-2.76-1.79-5.16-3.39-7.13-1.61-1.99-3.79-3.55-6.47-4.64-2.65-1.07-5.95-1.62-9.83-1.62-4.03 0-7.75.27-11.07.81-3.29.53-6.02 1.1-8.12 1.7l-.83.24v46.44h12.91V31.02c.6-.08 1.35-.18 2.24-.29 3.21-.39 6.27-.38 8.27.41 1.05.42 1.85 1.05 2.46 1.95.64.95 1.11 2.22 1.4 3.78.31 1.66.46 3.7.46 6.07v25.29h12.91v-9.48c.1.41.22.83.37 1.25.54 1.59 1.45 3.04 2.73 4.34 1.28 1.31 2.98 2.38 5.08 3.22 2.1.84 4.72 1.26 7.85 1.26s5.93-.54 8.41-1.61a24.13 24.13 0 0 0 6.59-4.2c.79.79 1.55 1.66 2.28 2.59.72.93 1.32 1.8 1.79 2.59h16.03V11.84h20.55V5.09zm-58.02 21.33c.93-1.07 2.29-1.61 4.06-1.61 1.68 0 2.97.48 3.85 1.44.89.96 1.33 2.11 1.33 3.47 0 1.08-.18 2.03-.53 2.87-.35.84-.82 1.61-1.4 2.31s-1.26 1.33-2.03 1.89c-.77.56-1.6 1.08-2.49 1.54-1.31-1.21-2.34-2.49-3.08-3.82-.75-1.33-1.12-2.67-1.12-4.03.01-1.63.47-2.98 1.41-4.06zm8.3 34.62c-1.71.65-3.61.98-5.71.98-1.54 0-2.86-.23-3.96-.7s-1.99-1.06-2.66-1.79c-.68-.72-1.17-1.51-1.47-2.35-.3-.84-.46-1.66-.46-2.45 0-1.26.2-2.37.6-3.33.4-.96.9-1.8 1.51-2.52s1.28-1.34 2.03-1.86c.75-.51 1.47-.96 2.17-1.33l12.33 12.54c-1.21 1.22-2.67 2.16-4.38 2.81z"/></svg>